<svg xmlns="http://www.w3.org/2000/svg" width="218.025" height="49.469" viewBox="0 0 218.025 49.469">
  <g id="Group_18" data-name="Group 18" transform="translate(-121 -60)">
    <g id="Group_17" data-name="Group 17" transform="translate(121 60)">
      <g id="Group_16" data-name="Group 16">
        <path id="Path_29" data-name="Path 29" d="M185.923,131.435V130.6a2.8,2.8,0,1,1,5.6,0v.835a6.27,6.27,0,0,1,1.734,1.3V130.6a4.534,4.534,0,1,0-9.068,0v2.134A6.25,6.25,0,0,1,185.923,131.435Z" transform="translate(-161.488 -104.929)" fill="#00b939"/>
        <path id="Path_30" data-name="Path 30" d="M187.1,104.4a20.945,20.945,0,0,0-6,1.417v18.363a7.438,7.438,0,0,0,1.13,3.955,6.707,6.707,0,0,1,4.909-4.6,1.436,1.436,0,0,1-.042-.345Z" transform="translate(-161.413 -104.402)" fill="#005cb3"/>
        <path id="Path_31" data-name="Path 31" d="M195.294,128.137a7.444,7.444,0,0,0,1.128-3.955V105.819a20.939,20.939,0,0,0-6-1.417V123.2a1.533,1.533,0,0,1-.041.345A6.705,6.705,0,0,1,195.294,128.137Z" transform="translate(-161.639 -104.402)" fill="#005cb3"/>
        <path id="Path_32" data-name="Path 32" d="M188.7,133.938a3.191,3.191,0,1,1-3.191,3.191,3.195,3.195,0,0,1,3.191-3.191m0-2.312a5.5,5.5,0,1,0,5.5,5.5,5.5,5.5,0,0,0-5.5-5.5Z" transform="translate(-161.464 -105.065)" fill="#00b939"/>
        <path id="Path_33" data-name="Path 33" d="M182.553,133.14a10.577,10.577,0,0,1-4.8-8.886V107.371a31.545,31.545,0,0,0-6.783,5.22v11.663A17.572,17.572,0,0,0,183.231,140.9a6.742,6.742,0,0,1-.678-7.761Z" transform="translate(-161.166 -104.474)" fill="#005cb3"/>
        <path id="Path_34" data-name="Path 34" d="M194.814,133.14a6.739,6.739,0,0,1-.68,7.761A17.573,17.573,0,0,0,206.4,124.254V112.591a31.568,31.568,0,0,0-6.783-5.22v16.883A10.583,10.583,0,0,1,194.814,133.14Z" transform="translate(-161.73 -104.474)" fill="#005cb3"/>
        <path id="Path_35" data-name="Path 35" d="M189.789,130.751v-.062a.978.978,0,1,0-1.955,0v.062a5.8,5.8,0,0,1,1.955,0Z" transform="translate(-161.577 -105.018)" fill="#005cb3"/>
        <g id="Group_15" data-name="Group 15" transform="translate(62.517 11.874)">
          <g id="Group_10" data-name="Group 10" transform="translate(0 0.37)">
            <path id="Path_36" data-name="Path 36" d="M244.384,120.277a11.354,11.354,0,1,1-8.03-3.326A10.939,10.939,0,0,1,244.384,120.277Zm-8.03-.1a8.138,8.138,0,1,0,5.742,2.384A7.819,7.819,0,0,0,236.355,120.181Z" transform="translate(-224.999 -116.951)" fill="#231f20"/>
            <path id="Path_37" data-name="Path 37" d="M251.551,126.34a1.558,1.558,0,0,1-.19-.76A1.568,1.568,0,0,1,252.945,124a1.563,1.563,0,0,1,1.124.459,1.486,1.486,0,0,1,.365.586l4.846,9.678,4.83-9.678a1.568,1.568,0,0,1,.38-.586,1.59,1.59,0,0,1,2.55,1.822l-9.376,18.831a2.238,2.238,0,0,1-.428.586,1.536,1.536,0,0,1-1.124.474,1.516,1.516,0,0,1-1.124-.466,1.539,1.539,0,0,1-.46-1.117,2.019,2.019,0,0,1,.206-.918l2.772-5.417Z" transform="translate(-225.641 -117.122)" fill="#231f20"/>
            <path id="Path_38" data-name="Path 38" d="M274.468,124a1.584,1.584,0,1,1,0,3.168.792.792,0,1,0,0,1.583,5.543,5.543,0,1,1-5.544,5.543,1.523,1.523,0,0,1,.467-1.125,1.58,1.58,0,0,1,2.7,1.125,2.375,2.375,0,1,0,2.376-2.376,3.959,3.959,0,1,1,0-7.918Z" transform="translate(-226.068 -117.122)" fill="#231f20"/>
            <path id="Path_39" data-name="Path 39" d="M283.286,123.849v-3.01a1.615,1.615,0,0,1,3.23,0v3.01h1.758a1.615,1.615,0,0,1,0,3.23h-1.758V138.1a1.615,1.615,0,0,1-3.23,0V127.079h-1.822a1.615,1.615,0,0,1,0-3.23Z" transform="translate(-226.334 -117.006)" fill="#231f20"/>
            <path id="Path_40" data-name="Path 40" d="M300.593,127.623a4.761,4.761,0,0,0-5.243.974,4.7,4.7,0,0,0,6.636,6.66l.031-.031a1.529,1.529,0,0,1,1.125-.46,1.57,1.57,0,0,1,1.141.467,1.529,1.529,0,0,1,.475,1.133,1.556,1.556,0,0,1-.475,1.141.308.308,0,0,0-.031.031,7.9,7.9,0,1,1,0-11.213l-.017.016c0,.012,0,.017.017.017a1.53,1.53,0,0,1,.459,1.124,1.511,1.511,0,0,1-.459,1.108l-4.53,4.5a1.624,1.624,0,0,1-2.3-2.3Z" transform="translate(-226.6 -117.123)" fill="#231f20"/>
            <path id="Path_41" data-name="Path 41" d="M316.5,124a1.615,1.615,0,0,1,0,3.23h-.017a4.532,4.532,0,0,0-3.326,1.379A4.421,4.421,0,0,0,311.8,131.6a2.534,2.534,0,0,1,.017.285V138a1.84,1.84,0,0,1-.476,1.362,1.606,1.606,0,0,1-2.279,0,1.885,1.885,0,0,1-.476-1.394v-6.113a7.627,7.627,0,0,1,2.312-5.512A8.155,8.155,0,0,1,316.5,124Z" transform="translate(-227.033 -117.122)" fill="#231f20"/>
          </g>
          <g id="Group_14" data-name="Group 14" transform="translate(92.208)">
            <g id="Group_11" data-name="Group 11" transform="translate(0 0.017)">
              <path id="Path_42" data-name="Path 42" d="M320.108,119.358a1.477,1.477,0,0,1-.238-.823,1.54,1.54,0,0,1,.46-1.116,1.518,1.518,0,0,1,1.125-.467,1.564,1.564,0,0,1,1.124.459,1.808,1.808,0,0,1,.317.46l8.061,16.583L339,117.869h.016a1.779,1.779,0,0,1,.316-.46,1.592,1.592,0,0,1,2.708,1.125,1.494,1.494,0,0,1-.269.887l-9.392,19.354a1.594,1.594,0,0,1-.3.412,1.539,1.539,0,0,1-1.125.474,1.505,1.505,0,0,1-1.124-.474,1.552,1.552,0,0,1-.333-.476Z" transform="translate(-319.516 -116.598)" fill="#00b939"/>
              <path id="Path_43" data-name="Path 43" d="M330.949,140.008a1.862,1.862,0,0,1-1.38-.582,1.9,1.9,0,0,1-.4-.581l-9.377-19.322a1.846,1.846,0,0,1-.282-1,1.891,1.891,0,0,1,.56-1.365,1.96,1.96,0,0,1,2.75-.015,2.178,2.178,0,0,1,.39.566l7.741,15.92,7.851-16.126a2.326,2.326,0,0,1,.265-.345,1.944,1.944,0,0,1,2.752,0,1.877,1.877,0,0,1,.571,1.367,1.856,1.856,0,0,1-.334,1.092l-9.363,19.3a1.94,1.94,0,0,1-.368.507A1.892,1.892,0,0,1,330.949,140.008Zm-9.5-22.711a1.163,1.163,0,0,0-.872.362,1.185,1.185,0,0,0-.359.867,1.119,1.119,0,0,0,.181.63l.02.038,9.392,19.353a1.249,1.249,0,0,0,2.013.381,1.249,1.249,0,0,0,.234-.318l9.391-19.352a1.223,1.223,0,0,0,.232-.732,1.181,1.181,0,0,0-.362-.866,1.226,1.226,0,0,0-1.741-.007,1.438,1.438,0,0,0-.247.359l-.114.2-8.267,17.039-8.381-17.238a1.441,1.441,0,0,0-.258-.375A1.2,1.2,0,0,0,321.447,117.3Z" transform="translate(-319.507 -116.589)" fill="#00b939"/>
            </g>
            <g id="Group_12" data-name="Group 12" transform="translate(25.387)">
              <path id="Path_44" data-name="Path 44" d="M349.122,130.159v7.887a1.616,1.616,0,0,1-3.231,0v-19.48a1.624,1.624,0,0,1,1.617-1.616l6.493-.016a6.612,6.612,0,1,1,0,13.224ZM354,120.119h-4.878v6.858H354a3.429,3.429,0,1,0,0-6.858Z" transform="translate(-345.536 -116.581)" fill="#00b939"/>
              <path id="Path_45" data-name="Path 45" d="M347.5,140.007a1.979,1.979,0,0,1-1.972-1.97V118.557a1.979,1.979,0,0,1,1.972-1.969l6.492-.016a6.967,6.967,0,0,1,0,13.933h-4.524v7.532a1.975,1.975,0,0,1-1.969,1.97Zm6.493-22.727-6.492.016a1.271,1.271,0,0,0-1.263,1.261v19.481a1.2,1.2,0,0,0,.373.89,1.244,1.244,0,0,0,1.779,0,1.206,1.206,0,0,0,.371-.89V129.8h5.233a6.269,6.269,0,0,0,6.265-6.267,5.964,5.964,0,0,0-1.835-4.421A6.074,6.074,0,0,0,353.992,117.28Zm0,10.041h-5.233v-7.565h5.233a3.783,3.783,0,1,1,0,7.565Zm-4.524-.708h4.524a3.074,3.074,0,1,0,0-6.149h-4.524Z" transform="translate(-345.527 -116.572)" fill="#00b939"/>
            </g>
            <g id="Group_13" data-name="Group 13" transform="translate(43.521 0.018)">
              <path id="Path_46" data-name="Path 46" d="M367.708,123.1v14.951a1.616,1.616,0,0,1-3.231,0v-19.48a1.613,1.613,0,0,1,2.756-1.141,1.572,1.572,0,0,1,.3.412l12.781,15.773V118.567a1.616,1.616,0,0,1,3.231,0v19.48a1.614,1.614,0,0,1-2.756,1.141,1.168,1.168,0,0,0-.127-.111Z" transform="translate(-364.123 -116.599)" fill="#00b939"/>
              <path id="Path_47" data-name="Path 47" d="M381.921,140.008a1.909,1.909,0,0,1-1.39-.579.6.6,0,0,0-.081-.072l-.071-.066-12.325-15.2v13.952a1.906,1.906,0,0,1-.579,1.391,1.964,1.964,0,0,1-2.782,0,1.908,1.908,0,0,1-.58-1.391V118.557a1.905,1.905,0,0,1,.58-1.39,1.966,1.966,0,0,1,2.782,0,1.923,1.923,0,0,1,.367.5l12.11,14.932V118.557a1.907,1.907,0,0,1,.579-1.39,1.967,1.967,0,0,1,2.782,0,1.9,1.9,0,0,1,.58,1.39v19.481a1.979,1.979,0,0,1-1.972,1.97Zm-1.019-1.2a1.552,1.552,0,0,1,.13.117,1.246,1.246,0,0,0,1.78,0,1.207,1.207,0,0,0,.372-.89V118.557a1.2,1.2,0,0,0-.372-.889,1.243,1.243,0,0,0-1.78,0,1.206,1.206,0,0,0-.371.889V134.6L367.25,118.052a1.565,1.565,0,0,0-.276-.383,1.24,1.24,0,0,0-1.779,0,1.2,1.2,0,0,0-.373.889v19.481a1.2,1.2,0,0,0,.373.89,1.244,1.244,0,0,0,1.779,0,1.2,1.2,0,0,0,.372-.89V122.087Z" transform="translate(-364.114 -116.59)" fill="#00b939"/>
            </g>
          </g>
        </g>
        <path id="Path_48" data-name="Path 48" d="M209.05,117.413V124.5a20.893,20.893,0,1,1-41.787,0v-7.085c-3.894,5.3-6.342,11.456-6.342,16.134,0,11,12.727,20.641,27.235,20.641s27.235-9.645,27.235-20.641C215.391,128.869,212.943,122.71,209.05,117.413Z" transform="translate(-160.922 -104.719)" fill="#005cb3"/>
      </g>
    </g>
  </g>
</svg>
